<svg width="51" height="58" viewBox="0 0 51 58" fill="none" xmlns="http://www.w3.org/2000/svg">
<path d="M25.4125 57C26.9 57 31.5375 55.3375 31.5375 55.3375C43 50.9625 50 40.1125 50 27.8625V8.7875C50 5.2875 47.8125 4.15 46.0625 3.625C39.325 1.7875 32.4125 1 25.4125 1C18.675 1 12.8125 1.9625 6.6875 3.275C6.1625 3.3625 5.55 3.5375 4.9375 3.625C3.1875 4.0625 1 5.2 1 8.7875V27.8625C1 40.1125 8 50.9625 19.4625 55.3375C19.4625 55.3375 24.1 57 25.5875 57" stroke="#001E2B" stroke-miterlimit="10"/>
<path d="M34.9672 22.25H16.0328C15.4303 22.25 15 22.6987 15 23.3269V37.5064C15 38.7628 15.9467 39.75 17.1516 39.75H33.8484C35.0533 39.75 36 38.7628 36 37.5064V23.3269C36 22.7885 35.4836 22.25 34.9672 22.25Z" fill="#00ED64" stroke="#001E2B" stroke-miterlimit="10"/>
<path d="M19.375 22.1653V17.9315C19.375 14.5444 22.1438 11.75 25.5 11.75C28.8562 11.75 31.625 14.5444 31.625 17.9315V22.25" stroke="#001E2B" stroke-miterlimit="10"/>
</svg>
