<svg width="58" height="58" viewBox="0 0 58 58" fill="none" xmlns="http://www.w3.org/2000/svg">
<path d="M19.6745 1.93335L42.3288 27.1761C43.2235 28.2172 43.2235 29.7707 42.3288 30.8118L19.6665 56.0667" stroke="#001E2B" stroke-miterlimit="10"/>
<path d="M33.6745 1.93335L56.3288 27.1761C57.2235 28.2172 57.2235 29.7707 56.3288 30.8118L33.6665 56.0667" stroke="#001E2B" stroke-miterlimit="10"/>
<path d="M28.3089 27.1637L4.9917 1.69349C4.56828 1.26673 3.98042 1 3.335 1C2.04417 1 1 2.04228 1 3.33077C1 3.33487 1 3.33898 1 3.34308L1.01233 54.4312C1.00411 54.5092 1 54.5913 1 54.6692C1 55.9536 2.04417 57 3.335 57C3.98042 57 4.56417 56.7374 4.98759 56.3147L28.313 30.8322C29.2297 29.7817 29.2297 28.2142 28.3089 27.1637Z" fill="#00ED64" stroke="#001E2B" stroke-miterlimit="10"/>
</svg>
