<svg width="66" height="62" viewBox="0 0 66 62" fill="none" xmlns="http://www.w3.org/2000/svg">
<path fill-rule="evenodd" clip-rule="evenodd" d="M29 53C29 57.4183 25.4183 61 21 61C16.5817 61 13 57.4183 13 53C13 48.5817 16.5817 45 21 45C21.6116 45 22.1512 45.0619 22.6941 45.1884C23.0562 45.2728 23.442 45.1829 23.7048 44.9197L43.5086 25.0812C43.804 24.7853 43.8799 24.3384 43.7298 23.9482C43.2584 22.7228 43 21.3916 43 20C43 13.9249 47.9249 9 54 9C55.014 9 55.9959 9.13719 56.9282 9.39402C57.6075 9.58115 57.7775 10.4204 57.2835 10.9228L51.6952 16.6067C51.3103 16.9981 51.313 17.6267 51.7012 18.0148L55.9536 22.2673C56.3426 22.6563 56.9728 22.658 57.364 22.2712L63.0539 16.643C63.5536 16.1487 64.3911 16.3138 64.5831 16.9899C64.8546 17.9466 65 18.9563 65 20C65 26.0751 60.0751 31 54 31C52.7407 31 51.5308 30.7884 50.404 30.3988C50.021 30.2664 49.5914 30.3478 49.305 30.6344L29.1824 50.7747C28.9379 51.0194 28.8419 51.3722 28.8971 51.7136C28.9648 52.1324 29 52.5621 29 53ZM20.9999 56C22.6567 56 23.9999 54.6569 23.9999 53C23.9999 51.3431 22.6567 50 20.9999 50C19.343 50 17.9999 51.3431 17.9999 53C17.9999 54.6569 19.343 56 20.9999 56Z" fill="#00ED64"/>
<path d="M22.6941 45.1884L22.8075 44.7014L22.8075 44.7014L22.6941 45.1884ZM23.7048 44.9197L24.0586 45.2729H24.0586L23.7048 44.9197ZM43.5086 25.0812L43.8625 25.4344L43.5086 25.0812ZM43.7298 23.9482L44.1965 23.7687L44.1965 23.7687L43.7298 23.9482ZM56.9282 9.39402L57.061 8.91198V8.91198L56.9282 9.39402ZM57.2835 10.9228L56.927 10.5723V10.5723L57.2835 10.9228ZM51.6952 16.6067L51.3386 16.2561V16.2561L51.6952 16.6067ZM51.7012 18.0148L51.3476 18.3684V18.3684L51.7012 18.0148ZM55.9536 22.2673L56.3072 21.9137L55.9536 22.2673ZM57.364 22.2712L57.7156 22.6266L57.364 22.2712ZM63.0539 16.643L63.4055 16.9984V16.9984L63.0539 16.643ZM64.5831 16.9899L64.1021 17.1264L64.5831 16.9899ZM50.404 30.3988L50.2406 30.8713L50.404 30.3988ZM49.305 30.6344L48.9513 30.281L48.9513 30.281L49.305 30.6344ZM29.1824 50.7747L29.5361 51.1281L29.1824 50.7747ZM28.8971 51.7136L29.3907 51.6338L28.8971 51.7136ZM21 61.5C25.6944 61.5 29.5 57.6944 29.5 53H28.5C28.5 57.1421 25.1421 60.5 21 60.5V61.5ZM12.5 53C12.5 57.6944 16.3056 61.5 21 61.5V60.5C16.8579 60.5 13.5 57.1421 13.5 53H12.5ZM21 44.5C16.3056 44.5 12.5 48.3056 12.5 53H13.5C13.5 48.8579 16.8579 45.5 21 45.5V44.5ZM22.8075 44.7014C22.2256 44.5659 21.6478 44.5 21 44.5V45.5C21.5753 45.5 22.0767 45.558 22.5806 45.6754L22.8075 44.7014ZM23.3509 44.5664C23.2247 44.6929 23.0221 44.7514 22.8075 44.7014L22.5806 45.6754C23.0904 45.7941 23.6594 45.6729 24.0586 45.2729L23.3509 44.5664ZM43.1548 24.7279L23.3509 44.5664L24.0586 45.2729L43.8625 25.4344L43.1548 24.7279ZM43.2632 24.1278C43.349 24.3509 43.2981 24.5844 43.1548 24.7279L43.8625 25.4344C44.3099 24.9862 44.4109 24.326 44.1965 23.7687L43.2632 24.1278ZM42.5 20C42.5 21.4539 42.77 22.8459 43.2632 24.1278L44.1965 23.7687C43.7467 22.5996 43.5 21.3292 43.5 20H42.5ZM54 8.5C47.6487 8.5 42.5 13.6487 42.5 20H43.5C43.5 14.201 48.201 9.5 54 9.5V8.5ZM57.061 8.91198C56.0858 8.64334 55.0592 8.5 54 8.5V9.5C54.9687 9.5 55.9059 9.63104 56.7954 9.87607L57.061 8.91198ZM57.64 11.2733C58.3601 10.5409 58.1634 9.21567 57.061 8.91198L56.7954 9.87607C56.9442 9.91705 57.0293 10.0204 57.0577 10.1485C57.0874 10.2825 57.0528 10.4443 56.927 10.5723L57.64 11.2733ZM52.0517 16.9572L57.64 11.2733L56.927 10.5723L51.3386 16.2561L52.0517 16.9572ZM52.0547 17.6613C51.8606 17.4672 51.8593 17.1529 52.0517 16.9572L51.3386 16.2561C50.7613 16.8433 50.7653 17.7861 51.3476 18.3684L52.0547 17.6613ZM56.3072 21.9137L52.0547 17.6613L51.3476 18.3684L55.6001 22.6209L56.3072 21.9137ZM57.0123 21.9157C56.8168 22.1091 56.5017 22.1083 56.3072 21.9137L55.6001 22.6209C56.1836 23.2044 57.1289 23.207 57.7156 22.6266L57.0123 21.9157ZM62.7023 16.2875L57.0123 21.9157L57.7156 22.6266L63.4055 16.9984L62.7023 16.2875ZM65.0641 16.8534C64.7527 15.7565 63.4308 15.5668 62.7023 16.2875L63.4055 16.9984C63.5328 16.8726 63.6941 16.8372 63.8282 16.8662C63.9563 16.894 64.0601 16.9784 64.1021 17.1264L65.0641 16.8534ZM65.5 20C65.5 18.9097 65.3481 17.854 65.0641 16.8534L64.1021 17.1264C64.3612 18.0391 64.5 19.0029 64.5 20H65.5ZM54 31.5C60.3513 31.5 65.5 26.3513 65.5 20H64.5C64.5 25.799 59.799 30.5 54 30.5V31.5ZM50.2406 30.8713C51.4193 31.2789 52.6843 31.5 54 31.5V30.5C52.797 30.5 51.6423 30.2979 50.5673 29.9262L50.2406 30.8713ZM49.6587 30.9878C49.7977 30.8486 50.022 30.7957 50.2406 30.8713L50.5673 29.9262C50.0201 29.737 49.385 29.8469 48.9513 30.281L49.6587 30.9878ZM29.5361 51.1281L49.6587 30.9878L48.9513 30.281L28.8287 50.4213L29.5361 51.1281ZM29.3907 51.6338C29.358 51.4317 29.4182 51.2461 29.5361 51.1281L28.8287 50.4213C28.4577 50.7926 28.3258 51.3127 28.4035 51.7934L29.3907 51.6338ZM29.5 53C29.5 52.5353 29.4627 52.0789 29.3907 51.6338L28.4035 51.7934C28.467 52.1859 28.5 52.5889 28.5 53H29.5ZM23.4999 53C23.4999 54.3807 22.3806 55.5 20.9999 55.5V56.5C22.9329 56.5 24.4999 54.933 24.4999 53H23.4999ZM20.9999 50.5C22.3806 50.5 23.4999 51.6193 23.4999 53H24.4999C24.4999 51.067 22.9329 49.5 20.9999 49.5V50.5ZM18.4999 53C18.4999 51.6193 19.6192 50.5 20.9999 50.5V49.5C19.0669 49.5 17.4999 51.067 17.4999 53H18.4999ZM20.9999 55.5C19.6192 55.5 18.4999 54.3807 18.4999 53H17.4999C17.4999 54.933 19.0669 56.5 20.9999 56.5V55.5Z" fill="#001E2B"/>
<path d="M48.9999 10.0258C48.6107 9.59517 48.2125 9.17914 47.7994 8.77767C42.8087 3.92806 35.9347 1 28.4016 1C13.2412 1 0.999878 12.8953 0.999878 27.6271C0.999878 37.0524 6.0178 45.3168 13.563 50M49 0V9C49 9.55228 48.5523 10 48 10H39" stroke="#001E2B"/>
<path d="M28 12V28H12" stroke="#001E2B"/>
</svg>
